<svg width="125" height="36" viewBox="0 0 125 36" fill="none" xmlns="http://www.w3.org/2000/svg">
<path fill-rule="evenodd" clip-rule="evenodd" d="M16.2146 26.8348V26.1399C16.2146 24.587 15.8434 23.4052 15.1133 22.5884C14.375 21.7736 13.2943 21.3673 11.8505 21.3673C10.5018 21.3673 9.43361 21.749 8.64564 22.5202C7.85789 23.2916 7.46189 24.5125 7.46189 26.181V26.8825C7.46189 28.6333 7.87823 29.8007 8.71563 30.376C9.54474 30.9659 10.6091 31.2526 11.8959 31.2526C13.0057 31.2526 14.0036 30.8999 14.8864 30.1862C15.7692 29.4789 16.2146 28.3629 16.2146 26.8348ZM23.1237 35.501H16.3921L16.2765 32.1271C15.7195 33.2118 14.7873 34.0923 13.4839 34.7835C12.1723 35.4724 10.642 35.8208 8.90144 35.8208C6.03038 35.8208 3.85674 35.103 2.38812 33.6552C0.915924 32.2199 0.17334 30.04 0.17334 27.1132V26.6638C0.17334 23.7744 1.16323 21.5386 3.12266 19.9711C5.08991 18.4037 7.72574 17.6282 11.0422 17.6282C12.0484 17.6282 13.0343 17.7727 14.0161 18.0614C14.9895 18.3523 15.7032 18.7132 16.1526 19.1443V16.5827C16.1526 15.6816 15.8394 14.9307 14.9318 14.31C14.0284 13.687 12.7456 13.3778 11.0834 13.3778C9.30146 13.3778 7.71769 13.5511 6.3233 13.9017C4.93317 14.2565 3.72057 14.6914 1.30768 15.8815V11.5029C4.02579 10.3565 5.51073 9.93765 7.14415 9.58905C8.78181 9.24068 10.7616 9.0694 13.1005 9.0694C16.8456 9.0694 19.1185 9.82205 20.7188 11.3276C22.3192 12.8375 23.1237 15.2525 23.1237 18.5604V35.501ZM34.2978 35.501H27.1331V9.57027H34.2978V35.501ZM34.4834 3.77919C34.4834 4.86411 34.1164 5.76724 33.3861 6.50982C32.6478 7.23988 31.7608 7.60905 30.7132 7.60905C29.6779 7.60905 28.7911 7.23988 28.0528 6.50982C27.3102 5.76724 26.939 4.86411 26.939 3.77919C26.939 2.73139 27.3102 1.83854 28.0528 1.10222C28.7911 0.368132 29.6779 0.000976562 30.7132 0.000976562C31.7608 0.000976562 32.6478 0.368132 33.3861 1.10222C34.1164 1.83854 34.4834 2.73139 34.4834 3.77919ZM58.0812 17.4386H51.4239C51.4239 16.7003 51.267 16.0793 50.966 15.5597C50.6567 15.0358 50.0503 14.7677 49.155 14.7677C48.3015 14.7677 47.5795 15.0049 46.9937 15.4752C46.4121 15.9412 46.0286 16.4384 45.8471 16.9664V35.501H38.6864V9.57049H45.5747L45.7151 13.6767C46.3875 12.2063 47.266 11.07 48.3344 10.2697C49.4108 9.4654 50.6773 9.0694 52.1332 9.0694C54.3113 9.0694 55.9405 9.77867 57.0088 11.2102C58.0855 12.6352 58.4401 14.7142 58.0812 17.4386ZM69.379 15.4588C69.874 15.8155 70.3192 15.9725 70.8145 15.9725C72.0311 15.9725 72.786 15.0463 72.786 13.5716C72.786 12.0681 72.1011 11.1896 70.9216 11.1896C70.3894 11.1896 69.9934 11.3526 69.379 11.8329V15.4588ZM69.379 10.276C70.0762 9.69213 70.7854 9.43857 71.6392 9.43857C73.6851 9.43857 75.3022 11.1771 75.3022 13.4355C75.3022 15.9725 73.7636 17.6345 71.4124 17.6345C70.7112 17.6345 69.9608 17.4243 69.379 17.0817V21.4149H66.8961V9.58503H69.379V10.276ZM81.1512 13.6624C79.683 14.1903 78.9856 14.5307 78.9856 15.3224C78.9856 15.7866 79.3405 16.1641 79.7819 16.1641C80.2438 16.1641 80.7431 15.9374 81.1512 15.5597V13.6624V13.6624ZM84.9916 16.9145C84.3067 17.323 83.3333 17.6345 82.6569 17.6345C81.8403 17.6345 81.4488 17.3704 81.2751 16.7414C80.3143 17.3952 79.5305 17.6345 78.6723 17.6345C77.4061 17.6345 76.4611 16.6918 76.4611 15.6979C76.4611 13.8149 77.8513 13.4355 81.1512 12.4102C81.2091 11.6782 80.8585 11.0923 79.7819 11.0923C78.792 11.0923 77.6659 11.6059 76.8782 12.4102V10.3891C77.9011 9.76011 79.0476 9.43834 80.3017 9.43834C82.2855 9.43834 83.6345 10.1004 83.6345 11.8329V15.4275C83.6345 15.8153 83.7953 15.9722 84.0469 15.9722C84.2204 15.9722 84.406 15.9371 84.9918 15.5266V16.9145H84.9916V16.9145Z" fill="white"/>
<path fill-rule="evenodd" clip-rule="evenodd" d="M87.7304 21.2559H85.0946L87.4084 16.1926L84.3272 9.58473H86.9795L88.6378 13.6436L90.4194 9.58473H93.0181L87.7304 21.2559ZM99.4899 11.7792C98.4052 11.1151 97.3493 10.9026 96.8498 10.9026C96.5282 10.9026 95.9594 10.9708 95.9594 11.5214C95.9594 12.3979 99.8818 12.4287 99.8818 15.0646C99.8818 16.704 98.7142 17.6344 96.6604 17.6344C95.3979 17.6344 94.1815 17.2384 93.8432 17.0506V15.3038C94.6431 15.6441 95.4478 15.9722 96.3918 15.9722C97.1262 15.9722 97.5883 15.7472 97.5883 15.3863C97.5883 14.2395 93.6699 14.4501 93.6699 11.8637C93.6699 10.4118 94.9899 9.43827 96.9408 9.43827C97.9309 9.43827 98.665 9.60754 99.4899 10.0138V11.7792V11.7792ZM111.588 11.5627C111.229 11.3027 110.647 11.0945 110.202 11.0945C108.952 11.0945 108.218 12.0019 108.218 13.5796C108.218 15.0149 108.952 15.9762 110.115 15.9762C110.647 15.9762 111.077 15.7884 111.588 15.3244V11.5627V11.5627ZM114.071 17.4817H111.588V16.8485C110.887 17.4075 110.235 17.6344 109.398 17.6344C107.273 17.6344 105.702 15.8897 105.702 13.5322C105.702 11.1151 107.273 9.43224 109.538 9.43224C110.251 9.43224 110.92 9.60754 111.588 9.93132V5.81055H114.071V17.4817ZM121.756 12.6374C121.657 11.5627 121.005 10.9069 120.04 10.9069C119.066 10.9069 118.431 11.5442 118.328 12.6374H121.756ZM123.81 16.5929C122.391 17.6344 120.898 17.6344 120.287 17.6344C117.511 17.6344 115.717 16.0299 115.717 13.5653C115.717 11.1461 117.441 9.43224 119.875 9.43224C122.164 9.43224 124.066 11.0596 123.95 13.9387H118.279C118.365 15.3409 119.327 16.1618 120.886 16.1618C121.879 16.1618 122.647 15.8711 123.81 15.038V16.5929H123.81ZM66.8464 23.8235H69.321V35.4947H66.8464V23.8235ZM76.5107 31.6753C75.0383 32.2075 74.3411 32.5516 74.3411 33.3436C74.3411 33.7995 74.7002 34.181 75.1411 34.181C75.6033 34.181 76.1024 33.9585 76.5107 33.5806V31.6753ZM80.3468 34.9337C79.6621 35.344 78.6845 35.6492 78.0204 35.6492C77.1994 35.6492 76.8038 35.3918 76.6348 34.7586C75.6735 35.4122 74.8858 35.6492 74.0316 35.6492C72.7653 35.6492 71.8251 34.713 71.8251 33.7168C71.8251 31.8359 73.211 31.4564 76.5107 30.4332C76.5686 29.6949 76.218 29.1153 75.1411 29.1153C74.1515 29.1153 73.0254 29.6269 72.2294 30.4332V28.4101C73.2604 27.7748 74.407 27.4533 75.6572 27.4533C77.6452 27.4533 78.9942 28.1174 78.9942 29.8496V33.4384C78.9942 33.8362 79.1467 33.9912 79.4068 33.9912C79.5756 33.9912 79.7695 33.9585 80.347 33.548V34.9337H80.3468V34.9337ZM86.0681 23.8235H88.551V35.4947H86.0681V23.8235ZM95.588 28.9239C94.5073 28.9239 93.773 29.7631 93.773 31.5429C93.773 33.5806 94.6477 34.181 95.588 34.181C96.7512 34.181 97.3656 33.224 97.3656 31.4917C97.3656 29.9489 96.8377 28.9239 95.588 28.9239ZM95.588 35.6494C93.0018 35.6494 91.1206 34.0265 91.1206 31.5432C91.1206 28.8559 93.2616 27.4535 95.588 27.4535C97.5264 27.4535 100.022 28.5321 100.022 31.562C100.022 34.6924 97.337 35.6494 95.588 35.6494ZM104.889 35.4947H102.406V27.606H104.889V35.4947ZM105.112 25.0404C105.112 25.7912 104.497 26.4057 103.743 26.4057C102.992 26.4057 102.373 25.7912 102.373 25.0404C102.373 24.2855 102.992 23.671 103.743 23.671C104.106 23.6715 104.454 23.8159 104.71 24.0726C104.967 24.3293 105.111 24.6773 105.112 25.0404V25.0404ZM110.4 29.8684H110.433C111.171 28.2207 111.992 27.4535 112.957 27.4535C113.448 27.4535 113.881 27.6451 114.595 28.1733L113.91 30.3634C113.254 29.9489 112.829 29.7798 112.437 29.7798C111.53 29.7798 110.948 30.6358 110.4 32.0876V35.4947H107.921V27.606H110.4V29.8684H110.4V29.8684ZM121.69 30.6564C121.586 29.582 120.931 28.9243 119.974 28.9243C118.996 28.9243 118.365 29.5594 118.266 30.6564H121.69V30.6564ZM123.744 34.6059C122.325 35.6494 120.836 35.6494 120.217 35.6494C117.441 35.6494 115.647 34.0386 115.647 31.576C115.647 29.1676 117.371 27.4535 119.801 27.4535C122.098 27.4535 123.996 29.0806 123.88 31.9577H118.213C118.295 33.3539 119.256 34.181 120.815 34.181C121.809 34.181 122.577 33.8901 123.744 33.0467V34.6059H123.744V34.6059ZM61.5295 9.44051H63.0147V35.4741H61.5295V9.44051Z" fill="white"/>
</svg>
