<svg width="70" height="80" viewBox="0 0 70 80" fill="none" xmlns="http://www.w3.org/2000/svg">
<g clip-path="url(#clip0_667_12521)">
<path d="M22.6178 41.3975C28.4703 43.6661 34.9417 43.6661 40.7941 41.3975C43.3754 40.3307 45.7054 38.7226 47.6314 36.6785C49.4871 34.6879 50.9357 32.3441 51.8935 29.7823C52.8739 27.1765 53.3713 24.4094 53.3607 21.6203C53.3767 18.801 52.8792 16.003 51.8935 13.3671C50.9192 10.7606 49.4278 8.38484 47.5117 6.38689C45.5956 4.38895 43.2956 2.81139 40.7541 1.7519C37.8823 0.576812 34.8072 -0.00170339 31.7109 0.0506207C28.5987 0.000531685 25.5077 0.578843 22.6178 1.7519C20.0391 2.82349 17.71 4.43096 15.7805 6.47087C13.9235 8.46814 12.4629 10.8095 11.4785 13.3671C10.4735 15.9985 9.96561 18.7983 9.98131 21.6203C9.97189 24.4121 10.4798 27.1808 11.4785 29.7823C12.4582 32.3423 13.9193 34.6845 15.7805 36.6785C17.7065 38.7226 20.0365 40.3307 22.6178 41.3975ZM22.3084 15.2101C23.1907 13.422 24.5234 11.9022 26.1712 10.805C27.8176 9.76149 29.7198 9.20818 31.661 9.20818C33.6023 9.20818 35.5045 9.76149 37.1509 10.805C38.8193 11.8928 40.1703 13.4138 41.0636 15.2101C42.0221 17.1999 42.5204 19.3853 42.5204 21.6C42.5204 23.8147 42.0221 26.0001 41.0636 27.9899C40.151 29.7728 38.8041 31.2892 37.1509 32.3949C35.5298 33.4636 33.6341 34.0236 31.701 34.0051C29.7427 34.0334 27.8183 33.4846 26.1613 32.4253C24.5082 31.3517 23.1732 29.8433 22.2984 28.0607C21.3585 26.0602 20.8708 23.8719 20.8708 21.6557C20.8708 19.4395 21.3585 17.2512 22.2984 15.2506L22.3084 15.2101Z" fill="white"/>
<path d="M69.2415 48.5469C65.169 44.557 59.819 42.6532 54.928 43.4836C51.5044 44.0405 48.6697 45.7519 45.9447 47.4025C44.9466 48.0101 43.9484 48.5772 43.0202 49.0836C39.5159 50.9187 35.6347 51.8902 31.6912 51.919C26.0417 51.7614 20.5331 50.0953 15.7209 47.0886C15.4386 46.9002 15.1216 46.772 14.789 46.7116C14.4565 46.6512 14.1153 46.6599 13.7861 46.7373C13.457 46.8147 13.1468 46.959 12.8743 47.1616C12.6018 47.3643 12.3727 47.6209 12.2009 47.916C12.029 48.2112 11.918 48.5386 11.8747 48.8785C11.8313 49.2184 11.8564 49.5638 11.9485 49.8935C12.0405 50.2233 12.1977 50.5307 12.4103 50.7971C12.623 51.0634 12.8867 51.2832 13.1856 51.4431C18.7623 54.9099 25.1427 56.8208 31.6812 56.9823H31.8509C36.5396 56.9274 41.1494 55.7512 45.3059 53.5494C46.4039 52.9722 47.4619 52.3443 48.48 51.7266C50.9255 50.2481 53.2412 48.8507 55.7166 48.4557C59.0704 47.9089 62.8234 49.3064 65.7679 52.2026C66.2444 52.6699 66.8844 52.926 67.547 52.9146C68.2097 52.9032 68.8407 52.6252 69.3013 52.1418C69.762 51.6583 70.0144 51.0091 70.0032 50.3368C69.992 49.6645 69.718 49.0243 69.2415 48.557V48.5469Z" fill="white"/>
</g>
<path d="M24.3919 76.2021C25.8151 76.7575 27.3908 76.7575 28.814 76.2021C29.4431 75.9439 30.0105 75.5523 30.4783 75.0534C30.9308 74.569 31.2842 73.9985 31.5182 73.3747C31.9912 72.0869 31.9912 70.6693 31.5182 69.3814C31.281 68.7466 30.9177 68.168 30.4508 67.6816C29.9839 67.1952 29.4235 66.8114 28.8042 66.554C28.1054 66.267 27.3568 66.1253 26.6029 66.1374C25.846 66.126 25.0943 66.2676 24.3919 66.554C23.763 66.8116 23.1956 67.2024 22.7276 67.7003C22.2742 68.1868 21.9178 68.7577 21.6779 69.3814C21.192 70.6669 21.192 72.0893 21.6779 73.3747C21.9173 73.998 22.2738 74.5682 22.7276 75.0534C23.1948 75.5529 23.7624 75.9446 24.3919 76.2021ZM24.3141 69.8276C24.529 69.3916 24.8544 69.0215 25.2569 68.7553C25.658 68.5024 26.1209 68.3683 26.5932 68.3683C27.0655 68.3683 27.5284 68.5024 27.9295 68.7553C28.3352 69.0206 28.664 69.3907 28.882 69.8276C29.1169 70.3115 29.2391 70.8436 29.2391 71.383C29.2391 71.9224 29.1169 72.4546 28.882 72.9384C28.6612 73.3734 28.333 73.7428 27.9295 74.0107C27.5352 74.2715 27.0736 74.4079 26.6029 74.4027C26.1273 74.4095 25.6599 74.2768 25.2569 74.0206C24.8546 73.7584 24.5291 73.3915 24.3141 72.9582C24.0855 72.4707 23.9668 71.9376 23.9668 71.3978C23.9668 70.858 24.0855 70.3249 24.3141 69.8374V69.8276Z" fill="white"/>
<path d="M20.0771 76.2364C20.0212 76.2083 19.9716 76.1689 19.9313 76.1205C19.8199 75.9505 19.7693 75.7469 19.788 75.5437V72.3392C19.788 71.0048 19.383 69.9793 18.5731 69.2628C17.7632 68.5463 16.6439 68.1872 15.2153 68.1856C14.4693 68.1827 13.7272 68.2941 13.014 68.5159C12.4588 68.694 11.9243 68.9328 11.4201 69.2283C11.2949 69.3006 11.2015 69.4186 11.1591 69.5583C11.1167 69.698 11.1283 69.8489 11.1917 69.9801L11.5173 70.658C11.5512 70.7296 11.5994 70.7933 11.6588 70.8451C11.7182 70.8968 11.7876 70.9355 11.8625 70.9586C11.9374 70.9818 12.0162 70.989 12.0939 70.9796C12.1717 70.9703 12.2467 70.9447 12.3142 70.9045C12.652 70.7008 13.0054 70.5252 13.3711 70.3795C13.8745 70.1843 14.4092 70.0857 14.948 70.0886C15.6915 70.0886 16.2519 70.2603 16.6294 70.6038C16.9586 70.9153 17.1569 71.3434 17.1833 71.7993C17.191 71.8878 17.1779 71.9769 17.1451 72.0593C17.1122 72.1416 17.0606 72.2149 16.9945 72.2731C16.9283 72.3314 16.8495 72.3728 16.7645 72.3942C16.6795 72.4155 16.5907 72.4161 16.5055 72.3959C16.3645 72.3638 16.2187 72.3342 16.0632 72.3121C15.6361 72.2478 15.2049 72.2148 14.7731 72.2135C14.0042 72.1992 13.2399 72.3374 12.5232 72.6202C11.9194 72.8521 11.3905 73.2488 10.9949 73.7664C10.6276 74.2635 10.4344 74.8708 10.4458 75.4919C10.4378 76.068 10.5948 76.634 10.8977 77.1213C11.2048 77.6094 11.6375 78.0032 12.149 78.2602C12.7069 78.5425 13.3236 78.6845 13.947 78.6743C14.6395 78.6705 15.3225 78.5105 15.9466 78.2059C16.5886 77.9033 17.1495 77.4485 17.5818 76.8797L17.6401 77.4048C17.6997 77.7397 17.8713 78.0436 18.1261 78.2651C18.459 78.5218 18.8729 78.6463 19.2899 78.6151C19.4477 78.613 19.6052 78.5999 19.7612 78.5757L19.9022 78.556C20.0366 78.537 20.1597 78.4694 20.249 78.3657C20.3383 78.262 20.3876 78.1291 20.3881 77.9915V76.759C20.388 76.6514 20.359 76.5459 20.3042 76.4538C20.2494 76.3617 20.1709 76.2866 20.0771 76.2364ZM17.2101 75.1049C17.2028 75.2545 17.1558 75.3993 17.074 75.524C16.9754 75.6881 16.8597 75.841 16.729 75.98C16.4642 76.2172 16.1575 76.4012 15.8251 76.5223C15.4636 76.6661 15.0788 76.7405 14.6905 76.7417C14.3546 76.7524 14.0211 76.6806 13.7186 76.5322C13.467 76.4097 13.2541 76.2185 13.1039 75.98C12.9665 75.7649 12.8931 75.5141 12.8925 75.2578C12.8915 75.0282 12.9506 74.8025 13.0637 74.6037C13.1768 74.405 13.3399 74.2402 13.5364 74.1263C14.0312 73.8224 14.6033 73.6732 15.1813 73.6974C15.5231 73.6996 15.8639 73.7342 16.1993 73.8009C16.4052 73.8413 16.6088 73.8932 16.8092 73.9562C16.923 73.993 17.0224 74.0656 17.0927 74.1636C17.1631 74.2616 17.2008 74.3798 17.2003 74.501L17.2101 75.1049Z" fill="white"/>
<path d="M8.80035 69.4081C8.58356 69.023 8.26336 68.7084 7.87707 68.5009C7.39754 68.2576 6.86509 68.1414 6.32936 68.1632C5.77203 68.1621 5.21764 68.2451 4.68445 68.4097C4.18998 68.5593 3.72473 68.7945 3.30925 69.1049C3.06422 69.2915 2.84231 69.5076 2.64836 69.7482C2.62425 69.7769 2.59212 69.7973 2.55624 69.8069C2.52036 69.8165 2.48245 69.8147 2.44758 69.8018C2.41272 69.789 2.38256 69.7656 2.36112 69.7349C2.33969 69.7042 2.32801 69.6676 2.32764 69.6299C2.32764 69.2841 2.19223 68.9524 1.95119 68.7079C1.71014 68.4633 1.38322 68.3259 1.04233 68.3259H0.182227C0.134093 68.3266 0.0881078 68.3462 0.0540691 68.3808C0.0200303 68.4153 0.000629283 68.462 0 68.5108V77.9025C0 78.0542 0.0593867 78.1997 0.165099 78.3069C0.270811 78.4142 0.414177 78.4744 0.563677 78.4744H2.02149C2.09552 78.4744 2.16883 78.4596 2.23722 78.4309C2.30561 78.4022 2.36774 78.36 2.42009 78.3069C2.47243 78.2538 2.51396 78.1908 2.54228 78.1214C2.57061 78.052 2.58519 77.9776 2.58519 77.9025V72.6175C2.58516 72.573 2.59256 72.5289 2.60706 72.4869C2.73258 72.1101 2.93453 71.7641 3.19991 71.4713C3.46908 71.1666 3.79213 70.9158 4.15234 70.7318C4.47698 70.5612 4.83643 70.4701 5.20197 70.4656C5.42701 70.4556 5.6511 70.501 5.85504 70.598C6.05899 70.6951 6.23674 70.8408 6.37309 71.0227C6.65493 71.3949 6.79829 71.984 6.79829 72.7925V76.6799C6.79797 76.9119 6.84272 77.1416 6.93 77.3561C7.01729 77.5705 7.14539 77.7653 7.30696 77.9295C7.46853 78.0936 7.66042 78.2239 7.87165 78.3127C8.08287 78.4016 8.30928 78.4473 8.53794 78.4473H9.19153C9.23986 78.4473 9.28621 78.4278 9.32039 78.3932C9.35456 78.3585 9.37376 78.3115 9.37376 78.2624V72.1368C9.37405 71.6518 9.33259 71.1676 9.24984 70.6899C9.17381 70.2396 9.02175 69.8059 8.80035 69.4081Z" fill="white"/>
<path d="M66.7708 68.0968H66.4453C65.8108 68.1432 65.2028 68.3733 64.6934 68.7599C64.2883 69.06 63.9387 69.4306 63.6608 69.8543C63.6388 69.8872 63.607 69.9119 63.57 69.925C63.533 69.938 63.4929 69.9386 63.4556 69.9267C63.4183 69.9148 63.3857 69.8911 63.3627 69.8589C63.3397 69.8268 63.3275 69.788 63.328 69.7483V68.5158C63.328 68.4668 63.3088 68.4198 63.2746 68.3851C63.2404 68.3504 63.1941 68.331 63.1457 68.331H61.1461C61.0978 68.331 61.0514 68.3504 61.0172 68.3851C60.9831 68.4198 60.9639 68.4668 60.9639 68.5158V78.2749C60.9639 78.3239 60.9831 78.3709 61.0172 78.4056C61.0514 78.4403 61.0978 78.4597 61.1461 78.4597H63.3571C63.4054 78.4597 63.4518 78.4403 63.486 78.4056C63.5201 78.3709 63.5393 78.3239 63.5393 78.2749V72.3194C63.5394 72.2884 63.5469 72.258 63.5612 72.2306C63.8418 71.6677 64.3028 71.2183 64.8684 70.9562C65.4676 70.6661 66.1215 70.5105 66.7854 70.5002C66.809 70.4999 66.8324 70.4948 66.854 70.4854C66.8757 70.4759 66.8954 70.4622 66.9118 70.445C66.9283 70.4278 66.9413 70.4076 66.95 70.3853C66.9588 70.363 66.9631 70.3393 66.9628 70.3153V68.1165C66.8998 68.1024 66.8354 68.0958 66.7708 68.0968Z" fill="white"/>
<path d="M58.4548 63.7979H56.2413C56.1407 63.7979 56.0591 63.8806 56.0591 63.9827V66.2086C56.0591 66.3107 56.1407 66.3935 56.2413 66.3935H58.4548C58.5554 66.3935 58.637 66.3107 58.637 66.2086V63.9827C58.637 63.8806 58.5554 63.7979 58.4548 63.7979Z" fill="white"/>
<path d="M54.1353 76.3079C54.0053 76.2853 53.8865 76.2193 53.7976 76.1205C53.6851 75.9509 53.6337 75.7473 53.6518 75.5437V72.3392C53.6518 71.0048 53.2517 69.9793 52.4515 69.2628C51.6513 68.5463 50.5321 68.1873 49.0937 68.1856C48.3477 68.1826 47.6056 68.2939 46.8924 68.5159C46.22 68.7326 45.5781 69.0367 44.9826 69.4206C44.9434 69.446 44.9149 69.4852 44.9023 69.5307C44.8898 69.5761 44.8941 69.6247 44.9146 69.6671L45.5803 71.045C45.5917 71.0685 45.6078 71.0892 45.6276 71.1059C45.6473 71.1226 45.6704 71.1348 45.6952 71.1418C45.72 71.1488 45.7459 71.1503 45.7714 71.1464C45.7968 71.1425 45.8211 71.1331 45.8428 71.119C46.2851 70.825 46.7556 70.5773 47.2471 70.3795C47.7506 70.1848 48.2852 70.0862 48.824 70.0886C49.5675 70.0886 50.1287 70.2603 50.5078 70.6038C50.7029 70.7935 50.855 71.0241 50.9532 71.2796C51.0514 71.535 51.0934 71.8092 51.0763 72.0828V72.3466C51.0764 72.3762 51.0695 72.4054 51.0562 72.4318C51.0428 72.4582 51.0234 72.4809 50.9996 72.498C50.9758 72.5152 50.9482 72.5263 50.9193 72.5304C50.8904 72.5345 50.8609 72.5315 50.8334 72.5216C50.543 72.4197 50.2436 72.3471 49.9392 72.3047C49.512 72.2405 49.0809 72.2076 48.6491 72.2061C47.8814 72.1855 47.1172 72.317 46.3992 72.5931C45.7954 72.825 45.2665 73.2217 44.8709 73.7393C44.5036 74.2364 44.3104 74.8437 44.3218 75.4648C44.3137 76.0409 44.4707 76.6069 44.7737 77.0942C45.0801 77.5829 45.513 77.9768 46.025 78.233C46.5829 78.5154 47.1996 78.6574 47.823 78.6472C48.5155 78.6432 49.1985 78.4832 49.8226 78.1788C50.4646 77.8762 51.0255 77.4214 51.4578 76.8526L51.5161 77.3777C51.5757 77.7126 51.7473 78.0165 52.002 78.238C52.3337 78.4953 52.7471 78.6199 53.1634 78.588C53.3261 78.5866 53.4885 78.5734 53.6494 78.5486L54.1183 78.4771C54.1612 78.4701 54.2004 78.448 54.2288 78.4146C54.2573 78.3813 54.2732 78.3388 54.2738 78.2947V76.4779C54.2722 76.4381 54.2578 76.4 54.2328 76.3693C54.2078 76.3385 54.1735 76.317 54.1353 76.3079ZM51.0763 75.1049C51.069 75.2545 51.022 75.3993 50.9403 75.524C50.8417 75.6881 50.726 75.841 50.5952 75.98C50.3305 76.2172 50.0238 76.4012 49.6914 76.5223C49.3298 76.6661 48.9451 76.7405 48.5567 76.7417C48.2208 76.7527 47.8873 76.6808 47.5848 76.5322C47.3329 76.4104 47.1198 76.219 46.9701 75.98C46.831 75.7656 46.7566 75.5145 46.7563 75.2578C46.7558 75.0283 46.8151 74.8028 46.9282 74.6041C47.0413 74.4054 47.2041 74.2406 47.4002 74.1263C47.8951 73.8227 48.4672 73.6735 49.0451 73.6974C49.3877 73.6996 49.7293 73.7342 50.0656 73.8009C50.3657 73.8584 50.6607 73.9409 50.9475 74.0474C50.9825 74.0609 51.0127 74.0849 51.0339 74.1161C51.0552 74.1474 51.0666 74.1845 51.0666 74.2225L51.0763 75.1049Z" fill="white"/>
<path d="M58.4548 68.3286H56.2413C56.1407 68.3286 56.0591 68.4114 56.0591 68.5135V78.3514C56.0591 78.4535 56.1407 78.5363 56.2413 78.5363H58.4548C58.5554 78.5363 58.637 78.4535 58.637 78.3514V68.5135C58.637 68.4114 58.5554 68.3286 58.4548 68.3286Z" fill="white"/>
<path d="M36.059 69.7386C36.0346 69.7694 36.0014 69.7917 35.964 69.8024C35.9266 69.8131 35.8868 69.8117 35.8502 69.7984C35.8136 69.7851 35.782 69.7606 35.7597 69.7282C35.7375 69.6959 35.7258 69.6573 35.7261 69.6179C35.7261 69.2766 35.5925 68.9493 35.3547 68.708C35.1168 68.4667 34.7942 68.3311 34.4578 68.3311H33.588C33.5378 68.3311 33.4895 68.3514 33.454 68.3874C33.4185 68.4235 33.3985 68.4724 33.3985 68.5234V76.7122C31.8921 76.4263 30.5995 77.3925 29.3846 78.0754C28.5297 78.5286 27.5794 78.7654 26.6148 78.7656C25.2329 78.7262 23.8851 78.3209 22.7054 77.5897C22.6366 77.5486 22.5606 77.5217 22.4815 77.5104C22.4025 77.4991 22.3221 77.5037 22.2448 77.524C22.1675 77.5442 22.0949 77.5797 22.0312 77.6284C21.9674 77.6772 21.9137 77.7381 21.8732 77.8079C21.8327 77.8777 21.8061 77.9548 21.795 78.035C21.7839 78.1152 21.7884 78.1968 21.8084 78.2752C21.8284 78.3536 21.8633 78.4273 21.9114 78.4919C21.9594 78.5566 22.0195 78.6111 22.0883 78.6522C23.451 79.4963 25.0089 79.9614 26.6051 80.0005C27.767 79.9984 28.9116 79.7144 29.9435 79.1723C30.772 78.7434 31.6127 78.0729 32.4898 77.9398C33.3086 77.8091 34.227 78.1493 34.9486 78.8543C35.0166 78.9199 35.0986 78.9686 35.1882 78.9968C35.2778 79.025 35.3725 79.0319 35.4651 79.0169C35.5578 79.0018 35.6457 78.9653 35.7222 78.9102C35.7986 78.8551 35.8615 78.7828 35.9059 78.699C35.9745 78.5058 35.9985 78.2992 35.9764 78.0951V72.5931C36.0984 72.1929 36.3005 71.8225 36.5702 71.5052C36.8399 71.1879 37.1713 70.9306 37.5436 70.7493C39.1836 69.9679 40.2527 70.9317 40.1895 72.8101V76.4558C40.1895 76.9882 40.3978 77.4988 40.7686 77.8755C41.1395 78.2522 41.6425 78.4642 42.1673 78.4648H42.5779C42.6282 78.4648 42.6764 78.4446 42.7119 78.4085C42.7474 78.3725 42.7674 78.3235 42.7674 78.2726V72.1494C42.7674 71.2275 42.6459 70.2095 42.1989 69.4207C41.0326 67.355 37.3297 68.0846 36.059 69.7386Z" fill="white"/>
<defs>
<clipPath id="clip0_667_12521">
<rect width="60.0185" height="56.9418" fill="white" transform="translate(9.98145)"/>
</clipPath>
</defs>
</svg>
