<svg width="70" height="16" viewBox="0 0 70 16" fill="none" xmlns="http://www.w3.org/2000/svg">
<path d="M25.4983 12.2486C26.9861 12.797 28.6332 12.797 30.1209 12.2486C30.7786 11.9936 31.3718 11.6068 31.8608 11.1142C32.3338 10.6359 32.7033 10.0725 32.9479 9.45656C33.4423 8.1848 33.4423 6.78494 32.9479 5.51318C32.6999 4.88627 32.3201 4.31492 31.8321 3.83461C31.344 3.35431 30.7581 2.97531 30.1108 2.72116C29.3802 2.43768 28.5977 2.29778 27.8096 2.30979C27.0183 2.29852 26.2326 2.43836 25.4983 2.72116C24.8409 2.9755 24.2478 3.3614 23.7585 3.85306C23.2846 4.33352 22.912 4.89723 22.6613 5.51318C22.1533 6.78256 22.1533 8.18718 22.6613 9.45656C22.9115 10.072 23.2841 10.635 23.7585 11.1142C24.247 11.6074 24.8403 11.9943 25.4983 12.2486ZM25.417 5.95376C25.6417 5.52324 25.9818 5.15777 26.4025 4.89489C26.8219 4.64514 27.3057 4.51278 27.7995 4.51278C28.2932 4.51278 28.7771 4.64514 29.1964 4.89489C29.6205 5.1569 29.9641 5.52237 30.1921 5.95376C30.4376 6.43158 30.5654 6.9571 30.5654 7.48974C30.5654 8.02238 30.4376 8.54789 30.1921 9.02571C29.9613 9.45521 29.6182 9.82004 29.1964 10.0846C28.7842 10.3421 28.3017 10.4768 27.8096 10.4716C27.3125 10.4784 26.8238 10.3474 26.4025 10.0943C25.982 9.83538 25.6417 9.47308 25.417 9.04518C25.178 8.56382 25.054 8.03744 25.054 7.50434C25.054 6.97125 25.178 6.44486 25.417 5.9635V5.95376Z" fill="white"/>
<path d="M20.9881 12.2824C20.9296 12.2547 20.8778 12.2157 20.8357 12.168C20.7192 12.0001 20.6663 11.7991 20.6858 11.5984V8.43393C20.6858 7.11622 20.2625 6.1036 19.4159 5.39606C18.5692 4.68853 17.3992 4.33394 15.9058 4.33232C15.126 4.32947 14.3502 4.43943 13.6046 4.65851C13.0242 4.83432 12.4655 5.07021 11.9384 5.36199C11.8075 5.43338 11.71 5.54992 11.6656 5.68787C11.6212 5.82581 11.6334 5.97478 11.6997 6.10441L12.04 6.77381C12.0755 6.84452 12.1259 6.90741 12.188 6.95851C12.2501 7.0096 12.3226 7.0478 12.4009 7.07067C12.4791 7.09355 12.5615 7.10061 12.6428 7.09141C12.7241 7.08222 12.8025 7.05695 12.8731 7.01723C13.2262 6.81608 13.5957 6.64269 13.978 6.49875C14.5041 6.30602 15.0631 6.20862 15.6264 6.21151C16.4036 6.21151 16.9894 6.3811 17.384 6.72026C17.7281 7.02786 17.9355 7.45062 17.9631 7.90084C17.9711 7.98823 17.9574 8.07621 17.9231 8.15754C17.8887 8.23887 17.8348 8.31125 17.7656 8.36873C17.6965 8.42622 17.6141 8.46717 17.5253 8.48823C17.4364 8.5093 17.3436 8.50987 17.2544 8.48991C17.1071 8.45827 16.9547 8.42906 16.7922 8.40715C16.3456 8.34369 15.8949 8.31116 15.4435 8.30979C14.6397 8.29571 13.8408 8.43214 13.0915 8.71143C12.4604 8.94045 11.9075 9.33216 11.494 9.84332C11.11 10.3342 10.908 10.9339 10.9199 11.5473C10.9115 12.1161 11.0757 12.6751 11.3923 13.1562C11.7134 13.6383 12.1657 14.0271 12.7004 14.2808C13.2836 14.5596 13.9283 14.6999 14.5799 14.6898C15.3039 14.6861 16.0179 14.5281 16.6703 14.2273C17.3414 13.9285 17.9277 13.4793 18.3796 12.9177L18.4406 13.4362C18.5029 13.7669 18.6823 14.067 18.9486 14.2857C19.2966 14.5392 19.7292 14.6621 20.1652 14.6314C20.3301 14.6293 20.4948 14.6163 20.6579 14.5924L20.8052 14.5729C20.9457 14.5542 21.0745 14.4875 21.1678 14.3851C21.2611 14.2827 21.3127 14.1515 21.3132 14.0155V12.7984C21.3131 12.6922 21.2827 12.588 21.2255 12.4971C21.1682 12.4062 21.0861 12.3319 20.9881 12.2824ZM17.991 11.1651C17.9834 11.3128 17.9342 11.4558 17.8488 11.5789C17.7457 11.7409 17.6248 11.8919 17.4881 12.0292C17.2113 12.2634 16.8907 12.4451 16.5433 12.5647C16.1653 12.7068 15.7631 12.7802 15.3571 12.7814C15.006 12.792 14.6574 12.721 14.3412 12.5745C14.0782 12.4536 13.8557 12.2647 13.6986 12.0292C13.5549 11.8168 13.4782 11.5692 13.4776 11.316C13.4766 11.0893 13.5383 10.8665 13.6566 10.6702C13.7748 10.4739 13.9453 10.3112 14.1507 10.1987C14.6679 9.89862 15.266 9.7513 15.8702 9.77516C16.2275 9.77733 16.5838 9.81155 16.9344 9.8774C17.1497 9.9173 17.3625 9.9685 17.5719 10.0308C17.691 10.067 17.7948 10.1388 17.8683 10.2355C17.9419 10.3323 17.9813 10.449 17.9808 10.5687L17.991 11.1651Z" fill="white"/>
<path d="M9.19951 5.53951C8.97288 5.15928 8.63816 4.84861 8.23435 4.64372C7.73307 4.40345 7.17647 4.28872 6.61643 4.31024C6.03383 4.30907 5.45429 4.39111 4.89692 4.55366C4.38002 4.70134 3.89367 4.93358 3.45934 5.2401C3.2032 5.42444 2.97123 5.63776 2.76848 5.87542C2.74328 5.90367 2.70969 5.92388 2.67218 5.93333C2.63468 5.94279 2.59504 5.94105 2.5586 5.92835C2.52215 5.91565 2.49062 5.89259 2.46822 5.86225C2.44581 5.83192 2.43359 5.79575 2.43321 5.75858C2.43321 5.41707 2.29166 5.08954 2.03969 4.84805C1.78771 4.60656 1.44596 4.4709 1.08961 4.4709H0.190492C0.140175 4.47153 0.0921041 4.49096 0.0565214 4.52507C0.0209388 4.55917 0.000657825 4.60524 0 4.65346V13.9277C0 14.0775 0.0620802 14.2211 0.172587 14.327C0.283094 14.4329 0.432962 14.4924 0.589243 14.4924H2.11318C2.19056 14.4924 2.2672 14.4778 2.33869 14.4495C2.41019 14.4211 2.47514 14.3795 2.52985 14.327C2.58457 14.2746 2.62798 14.2123 2.65759 14.1438C2.68721 14.0753 2.70244 14.0019 2.70244 13.9277V8.70882C2.70241 8.66489 2.71015 8.62127 2.72531 8.57981C2.85652 8.20769 3.06763 7.86605 3.34504 7.57692C3.62643 7.27605 3.96413 7.02836 4.34068 6.84666C4.68004 6.67825 5.05579 6.58822 5.43792 6.58377C5.67316 6.5739 5.90741 6.61879 6.12061 6.71459C6.33381 6.8104 6.51962 6.95427 6.66215 7.1339C6.95678 7.50146 7.10663 8.08323 7.10663 8.88164V12.7204C7.1063 12.9494 7.15308 13.1763 7.24433 13.3881C7.33557 13.5998 7.46948 13.7922 7.63838 13.9543C7.80728 14.1164 8.00787 14.245 8.22868 14.3328C8.44948 14.4205 8.68616 14.4657 8.92519 14.4657H9.60843C9.65895 14.4657 9.7074 14.4464 9.74313 14.4122C9.77885 14.378 9.79892 14.3315 9.79892 14.2831V8.23415C9.79922 7.75515 9.75588 7.27705 9.66938 6.80528C9.5899 6.36059 9.43095 5.93238 9.19951 5.53951Z" fill="white"/>
<path d="M69.7994 4.24462H69.459C68.7958 4.29045 68.1602 4.51771 67.6277 4.89941C67.2042 5.19582 66.8388 5.56172 66.5483 5.98019C66.5253 6.0126 66.492 6.03705 66.4533 6.04992C66.4147 6.06279 66.3728 6.06341 66.3338 6.05167C66.2947 6.03993 66.2607 6.01646 66.2367 5.98474C66.2126 5.95302 66.1999 5.91472 66.2003 5.87553V4.65843C66.2003 4.61001 66.1803 4.56358 66.1445 4.52934C66.1088 4.4951 66.0604 4.47587 66.0098 4.47587H63.9195C63.869 4.47587 63.8205 4.4951 63.7848 4.52934C63.7491 4.56358 63.729 4.61001 63.729 4.65843V14.2954C63.729 14.3438 63.7491 14.3902 63.7848 14.4245C63.8205 14.4587 63.869 14.4779 63.9195 14.4779H66.2308C66.2813 14.4779 66.3298 14.4587 66.3655 14.4245C66.4012 14.3902 66.4213 14.3438 66.4213 14.2954V8.41438C66.4213 8.38382 66.4292 8.35374 66.4442 8.32675C66.7375 7.77085 67.2194 7.32706 67.8106 7.06828C68.4371 6.7818 69.1206 6.62819 69.8146 6.61795C69.8393 6.61763 69.8637 6.61266 69.8863 6.60331C69.909 6.59396 69.9295 6.58043 69.9468 6.56348C69.964 6.54652 69.9775 6.52649 69.9867 6.50451C69.9958 6.48253 70.0004 6.45904 70 6.43539V4.26409C69.9341 4.25018 69.8668 4.24364 69.7994 4.24462Z" fill="white"/>
<path d="M61.1064 -0.000534058H58.7925C58.6873 -0.000534058 58.6021 0.0812026 58.6021 0.18203V2.3801C58.6021 2.48093 58.6873 2.56266 58.7925 2.56266H61.1064C61.2116 2.56266 61.2969 2.48093 61.2969 2.3801V0.18203C61.2969 0.0812026 61.2116 -0.000534058 61.1064 -0.000534058Z" fill="white"/>
<path d="M56.5907 12.353C56.4548 12.3307 56.3306 12.2656 56.2376 12.168C56.1201 12.0005 56.0663 11.7994 56.0852 11.5984V8.43393C56.0852 7.11623 55.667 6.10361 54.8305 5.39607C53.9941 4.68853 52.824 4.33395 51.3204 4.33233C50.5406 4.32932 49.7648 4.43929 49.0193 4.65851C48.3164 4.87247 47.6453 5.17275 47.0229 5.55186C46.9819 5.57699 46.952 5.61568 46.9389 5.66057C46.9258 5.70546 46.9304 5.75341 46.9518 5.79528L47.6477 7.15599C47.6595 7.17913 47.6764 7.1996 47.6971 7.21607C47.7177 7.23253 47.7418 7.24461 47.7678 7.25151C47.7937 7.25841 47.8208 7.25997 47.8474 7.25609C47.874 7.25222 47.8994 7.24299 47.922 7.22901C48.3844 6.93875 48.8763 6.69408 49.3901 6.49876C49.9164 6.30652 50.4752 6.20913 51.0385 6.21152C51.8157 6.21152 52.4024 6.3811 52.7986 6.72026C53.0027 6.90756 53.1616 7.1353 53.2642 7.38757C53.3669 7.63984 53.4108 7.91054 53.393 8.18078V8.44124C53.3931 8.4705 53.3859 8.49937 53.3719 8.5254C53.3579 8.55143 53.3376 8.57386 53.3127 8.5908C53.2878 8.60774 53.2591 8.6187 53.2288 8.62275C53.1986 8.6268 53.1678 8.62382 53.139 8.61407C52.8355 8.51348 52.5224 8.44173 52.2043 8.39986C51.7577 8.33652 51.307 8.30398 50.8556 8.30249C50.0532 8.2822 49.2543 8.41201 48.5037 8.68465C47.8725 8.91368 47.3196 9.30539 46.9061 9.81655C46.5221 10.3075 46.3201 10.9071 46.332 11.5205C46.3236 12.0893 46.4878 12.6483 46.8045 13.1295C47.1248 13.6121 47.5773 14.0011 48.1125 14.2541C48.6957 14.5329 49.3404 14.6731 49.992 14.663C50.7159 14.6591 51.4299 14.5011 52.0824 14.2005C52.7535 13.9017 53.3398 13.4526 53.7917 12.8909L53.8527 13.4094C53.915 13.7402 54.0944 14.0402 54.3607 14.2589C54.7074 14.5131 55.1395 14.6361 55.5747 14.6046C55.7448 14.6032 55.9146 14.5902 56.0827 14.5657L56.5729 14.4951C56.6178 14.4882 56.6587 14.4663 56.6885 14.4334C56.7182 14.4004 56.7348 14.3585 56.7355 14.3149V12.5209C56.7338 12.4816 56.7187 12.4439 56.6926 12.4136C56.6664 12.3833 56.6307 12.362 56.5907 12.353ZM53.393 11.1651C53.3853 11.3128 53.3362 11.4558 53.2507 11.5789C53.1477 11.7409 53.0267 11.8919 52.8901 12.0292C52.6133 12.2634 52.2927 12.4451 51.9452 12.5647C51.5673 12.7068 51.1651 12.7802 50.7591 12.7814C50.4079 12.7923 50.0593 12.7213 49.7431 12.5745C49.4797 12.4542 49.257 12.2653 49.1005 12.0292C48.955 11.8175 48.8773 11.5696 48.877 11.316C48.8765 11.0894 48.9385 10.8668 49.0567 10.6706C49.1749 10.4744 49.3451 10.3116 49.5501 10.1987C50.0675 9.89889 50.6655 9.75159 51.2696 9.77517C51.6277 9.77732 51.9849 9.81155 52.3364 9.8774C52.6501 9.93418 52.9585 10.0156 53.2583 10.1208C53.2949 10.1341 53.3264 10.1578 53.3486 10.1887C53.3709 10.2195 53.3828 10.2562 53.3828 10.2937L53.393 11.1651Z" fill="white"/>
<path d="M61.1064 4.47355H58.7925C58.6873 4.47355 58.6021 4.55529 58.6021 4.65611V14.371C58.6021 14.4718 58.6873 14.5535 58.7925 14.5535H61.1064C61.2116 14.5535 61.2969 14.4718 61.2969 14.371V4.65611C61.2969 4.55529 61.2116 4.47355 61.1064 4.47355Z" fill="white"/>
<path d="M37.6945 5.86595C37.6691 5.8963 37.6344 5.9183 37.5952 5.92887C37.5561 5.93945 37.5145 5.93809 37.4763 5.92497C37.438 5.91185 37.4049 5.88763 37.3817 5.85568C37.3584 5.82372 37.3462 5.78562 37.3466 5.74667C37.3466 5.40967 37.2069 5.08648 36.9582 4.84819C36.7096 4.6099 36.3724 4.47603 36.0207 4.47603H35.1115C35.0589 4.47603 35.0085 4.49603 34.9714 4.53164C34.9342 4.56725 34.9133 4.61554 34.9133 4.66589V12.7523C33.3386 12.4699 31.9874 13.4241 30.7174 14.0984C29.8237 14.546 28.8303 14.7798 27.8219 14.7799C26.3774 14.7411 24.9685 14.3408 23.7352 13.6188C23.6634 13.5782 23.5838 13.5516 23.5012 13.5405C23.4186 13.5293 23.3345 13.5339 23.2537 13.5539C23.173 13.5739 23.0971 13.6089 23.0304 13.657C22.9638 13.7052 22.9077 13.7654 22.8653 13.8343C22.823 13.9031 22.7952 13.9794 22.7835 14.0585C22.7719 14.1377 22.7767 14.2183 22.7975 14.2957C22.8184 14.3731 22.855 14.4459 22.9052 14.5097C22.9554 14.5736 23.0182 14.6274 23.0901 14.668C24.5147 15.5015 26.1432 15.9608 27.8118 15.9995C29.0265 15.9973 30.223 15.7169 31.3016 15.1816C32.1677 14.758 33.0465 14.0959 33.9634 13.9645C34.8194 13.8355 35.7794 14.1714 36.5338 14.8676C36.6048 14.9323 36.6905 14.9805 36.7842 15.0083C36.8778 15.0362 36.9769 15.0429 37.0737 15.0281C37.1705 15.0133 37.2625 14.9772 37.3424 14.9228C37.4223 14.8683 37.4881 14.797 37.5345 14.7142C37.6061 14.5234 37.6313 14.3194 37.6082 14.1178V8.68474C37.7357 8.28948 37.947 7.92373 38.2289 7.61042C38.5108 7.2971 38.8572 7.04297 39.2464 6.86397C40.9608 6.09233 42.0784 7.04409 42.0124 8.89895V12.4991C42.0124 13.0248 42.2301 13.5291 42.6178 13.901C43.0054 14.273 43.5313 14.4823 44.0798 14.483H44.5091C44.5616 14.483 44.612 14.463 44.6492 14.4274C44.6863 14.3917 44.7072 14.3435 44.7072 14.2931V8.24658C44.7072 7.3362 44.5802 6.33088 44.1129 5.55194C42.8937 3.51209 39.0229 4.23261 37.6945 5.86595Z" fill="white"/>
</svg>
