<svg width="24" height="24" viewBox="0 0 24 24" fill="none" xmlns="http://www.w3.org/2000/svg">
<path d="M12.1991 0.99357L12.1991 0.993569L11.7308 1.04104L11.7132 0.994219L11.7132 0.994223L1.4007 4.8614L1.4007 4.86141C1.12961 4.96308 0.95 5.22219 0.95 5.51172V6.80078C0.95 7.18435 1.26096 7.49531 1.64453 7.49531H2.23906V8.08984C2.23906 8.93951 2.77607 9.6655 3.52813 9.94755V16.6306C2.77607 16.9126 2.23906 17.6386 2.23906 18.4883V19.2087C1.48701 19.4908 0.95 20.2167 0.95 21.0664V22.3555C0.95 22.739 1.26096 23.05 1.64453 23.05H22.3555C22.739 23.05 23.05 22.739 23.05 22.3555V21.0664C23.05 20.2167 22.513 19.4907 21.7609 19.2087V18.4883C21.7609 17.6386 21.2239 16.9126 20.4719 16.6306V9.94755C21.2239 9.6655 21.7609 8.93951 21.7609 8.08984V7.49531H22.3555C22.739 7.49531 23.05 7.18435 23.05 6.80078V5.51172C23.05 5.2215 22.8696 4.96188 22.5976 4.86075L12.1991 0.99357ZM2.93359 6.10625H2.33906V5.99303L11.958 2.38592L21.6609 5.99442V6.10625H21.0664H2.93359ZM3.62812 18.4883C3.62812 18.1605 3.89488 17.8937 4.22266 17.8937H19.7773C20.1051 17.8937 20.3719 18.1605 20.3719 18.4883V19.0828H3.62812V18.4883ZM4.91719 16.5047V10.0734H6.10625V16.5047H4.91719ZM7.49531 16.5047V10.0734H9.97344V16.5047H7.49531ZM11.3625 16.5047V10.0734H12.5516V16.5047H11.3625ZM13.9406 16.5047V10.0734H16.5047V16.5047H13.9406ZM17.8937 16.5047V10.0734H19.0828V16.5047H17.8937ZM21.0664 20.4719C21.3942 20.4719 21.6609 20.7386 21.6609 21.0664V21.6609H2.33906V21.0664C2.33906 20.7386 2.60581 20.4719 2.93359 20.4719H21.0664ZM19.7773 8.68437H4.22266C3.89488 8.68437 3.62812 8.41762 3.62812 8.08984V7.49531H20.3719V8.08984C20.3719 8.41762 20.1051 8.68437 19.7773 8.68437Z" fill="#25244E" stroke="#25244E" stroke-width="0.1"/>
</svg>
