<svg width="20" height="18" viewBox="0 0 20 18" fill="none" xmlns="http://www.w3.org/2000/svg">
<path fill-rule="evenodd" clip-rule="evenodd" d="M3.45473 1.75C3.33916 1.75 3.23866 1.82921 3.21165 1.94157L2.05092 6.7702C1.93044 7.2714 2.13494 7.80222 2.56445 8.09674C3.34848 8.63436 4.41811 8.14389 4.52528 7.21792L5.15815 1.75H3.45473ZM1.7532 1.59098C1.94227 0.804444 2.64578 0.25 3.45473 0.25H5.96291H6.84177H9.25H10.75H13.2915H14.0371H16.6786C17.4875 0.25 18.191 0.804444 18.3801 1.59098L19.5408 6.41961C19.7666 7.35869 19.4779 8.33299 18.8167 9.00041V16C18.8167 16.9665 18.0331 17.75 17.0667 17.75H3.06665C2.10015 17.75 1.31665 16.9665 1.31665 16V9.00041C0.655401 8.33299 0.366728 7.35869 0.592469 6.41961L1.7532 1.59098ZM17.3167 9.7819C16.235 9.96469 15.1222 9.47784 14.5304 8.55684C13.9286 9.61404 12.6462 10.2269 11.3445 9.83638L11.2098 9.79596C10.736 9.65383 10.3231 9.39198 10 9.04946C9.67692 9.39198 9.26397 9.65383 8.79021 9.79596L8.65548 9.83638C7.39728 10.2138 6.15715 9.65389 5.53217 8.66135C4.92536 9.51437 3.8566 9.95765 2.81665 9.7819V16C2.81665 16.1381 2.92858 16.25 3.06665 16.25H17.0667C17.2047 16.25 17.3167 16.1381 17.3167 16V9.7819ZM7.28709 1.75H9.25V7.16194C9.25 7.71395 8.88791 8.2006 8.35919 8.35922L8.22446 8.39964C7.35928 8.65919 6.51289 7.94361 6.62492 7.04731L7.28709 1.75ZM10.75 7.16194V1.75H12.7129L13.3751 7.04731C13.4871 7.94361 12.6407 8.65919 11.7755 8.39964L11.6408 8.35922C11.1121 8.2006 10.75 7.71395 10.75 7.16194ZM16.9216 1.94157C16.8946 1.82921 16.7941 1.75 16.6786 1.75H14.9752L15.608 7.21792C15.7152 8.14389 16.7848 8.63436 17.5688 8.09674C17.9984 7.80222 18.2029 7.2714 18.0824 6.7702L16.9216 1.94157Z" />
</svg>
