<svg width="19" height="21" viewBox="0 0 19 21" fill="none" xmlns="http://www.w3.org/2000/svg">
<path d="M16.8247 12.3557H17.6823C18.0597 12.3557 18.2864 11.9368 18.0799 11.6209L15.9571 8.37258H16.5253C16.9027 8.37258 17.1294 7.95366 16.923 7.63773L12.2398 0.471354C12.0523 0.184482 11.632 0.18448 11.4445 0.471349L8.71351 4.65038C7.81937 3.61123 7.08204 2.92574 7.0024 2.85239L7.00238 2.85238L6.87478 2.73492C6.69296 2.56756 6.4132 2.56756 6.23139 2.73492L6.10378 2.85238L6.10377 2.85239C5.99703 2.95069 4.7047 4.15176 3.43847 5.83262C2.17481 7.51008 0.925 9.68101 0.925 11.7166C0.925 14.486 2.94713 16.7926 5.59602 17.247C5.76479 17.276 5.89058 17.4173 5.89058 17.5825V18.4284C5.89058 18.6079 5.74507 18.7534 5.56558 18.7534H3.34923C3.08689 18.7534 2.87423 18.9661 2.87423 19.2284V19.6C2.87423 19.8623 3.08689 20.075 3.34923 20.075H16.0377C16.3 20.075 16.5127 19.8623 16.5127 19.6V19.2284C16.5127 18.9661 16.3 18.7534 16.0377 18.7534H14.2919C14.1125 18.7534 13.9669 18.6079 13.9669 18.4284V16.2215C13.9669 16.042 14.1125 15.8965 14.2919 15.8965H18.2608C18.6382 15.8965 18.8648 15.4776 18.6584 15.1617L16.8247 12.3557ZM8.5205 6.51486L8.5205 6.51486C10.0554 8.51976 10.856 10.3177 10.856 11.7166C10.856 13.8572 9.27491 15.6371 7.21559 15.9557V14.5769C7.21559 14.4905 7.24996 14.4077 7.31112 14.3467L9.03513 12.6278C9.22129 12.4422 9.22129 12.1407 9.03513 11.955L8.77081 11.6915C8.58543 11.5067 8.28543 11.5067 8.10005 11.6915L7.21559 12.5734V10.8193C7.21559 10.557 7.00292 10.3443 6.74059 10.3443H6.36557C6.10324 10.3443 5.89058 10.557 5.89058 10.8193V12.5734L5.00614 11.6915C4.82074 11.5067 4.52073 11.5067 4.33535 11.6916L4.07098 11.9552C3.88485 12.1408 3.88486 12.4423 4.07101 12.6279L5.79505 14.3469C5.8562 14.4079 5.89058 14.4907 5.89058 14.577V15.9557C3.83111 15.6371 2.25001 13.8574 2.25001 11.7166C2.25001 10.3952 2.93477 8.93539 3.79263 7.62764C4.64892 6.32227 5.67008 5.17971 6.3277 4.49515C6.45154 4.36623 6.65593 4.36669 6.78035 4.49608C7.24289 4.97708 7.88471 5.6843 8.5205 6.51486ZM11.4228 18.7534C11.2433 18.7534 11.0978 18.6079 11.0978 18.4284V16.2215C11.0978 16.042 11.2433 15.8965 11.4228 15.8965H12.3169C12.4964 15.8965 12.6419 16.042 12.6419 16.2215V18.4284C12.6419 18.6079 12.4964 18.7534 12.3169 18.7534H11.4228ZM14.3897 7.05101C14.0123 7.05101 13.7856 7.46992 13.9921 7.78585L16.1149 11.0343H15.2574C14.88 11.0343 14.6533 11.4532 14.8598 11.7692L16.6933 14.575H11.3945C11.8938 13.7373 12.1812 12.7598 12.1812 11.7166C12.1812 9.71371 10.9711 7.57999 9.72886 5.91433C9.64586 5.80304 9.6404 5.65248 9.71577 5.53713L11.5701 2.69942C11.6984 2.50314 11.986 2.50313 12.1142 2.69941L14.958 7.05101H14.3897ZM7.54059 18.7534C7.3611 18.7534 7.21559 18.6079 7.21559 18.4284V17.5825C7.21559 17.4173 7.34119 17.276 7.5099 17.247C8.11668 17.143 8.69057 16.9417 9.21475 16.6599C9.46157 16.5273 9.77281 16.6998 9.77281 16.9626V18.4284C9.77281 18.6079 9.6273 18.7534 9.44781 18.7534H7.54059Z" fill="#25244E" stroke="#25244E" stroke-width="0.15"/>
</svg>
