<svg width="24" height="25" viewBox="0 0 24 25" fill="none" xmlns="http://www.w3.org/2000/svg">
<path fill-rule="evenodd" clip-rule="evenodd" d="M17.7296 7.32938C18.0712 7.26364 18.6303 6.25424 19.2189 4.81552L19.2214 4.8156C19.524 4.07226 19.9698 1.63195 19.7683 1.54096C19.6101 1.46986 18.3812 3.54953 18.1097 4.20042C17.6428 5.33093 17.4349 6.38587 17.4771 6.93559L17.4554 6.97927C17.1008 7.33391 16.7881 7.65448 16.4949 7.95493L16.4949 7.95494L16.4949 7.955C15.9615 8.50169 15.4931 8.9818 14.9554 9.47933C14.1114 10.2348 13.0298 11.0283 11.9554 11.4793C11.403 11.7142 10.8203 11.9796 10.2361 12.2457C9.68192 12.4981 9.12636 12.7511 8.5939 12.9793C8.47297 13.0304 8.3651 13.0661 8.2591 13.1012L8.25908 13.1012C8.12542 13.1455 7.99474 13.1888 7.84464 13.2606L7.45544 13.4793L6.39132 13.9793C6.33475 14.011 6.26709 14.0478 6.19147 14.089C5.87196 14.2629 5.41036 14.5141 5.04345 14.778C5.16098 14.4248 5.27144 14.0702 5.37936 13.7237L5.45557 13.4794C5.78283 12.4329 5.89743 11.1081 5.95557 9.9794L5.96098 9.88828C5.9846 9.4915 6.01115 9.04539 6.02071 8.58556C6.32646 8.03631 6.60158 6.95644 6.81735 5.60347L6.81679 5.60662C6.97016 4.65062 6.71949 1.65105 6.41388 1.59728C6.17299 1.5549 5.23221 4.33184 5.09165 5.17292C4.87899 6.44806 4.91865 7.6022 5.10038 8.29756C5.05265 8.49187 5.00417 8.71662 4.95557 8.97898C4.79075 9.86866 4.4226 11.0182 4.11887 11.9666C4.06154 12.1456 4.00651 12.3175 3.95557 12.4791C3.81585 12.9252 3.67347 13.457 3.52821 13.9994L3.52821 13.9994L3.52821 13.9994C3.34217 14.6941 3.15143 15.4064 2.95557 15.9791C2.73045 16.6239 2.48765 18.0285 2.27751 19.244C2.21188 19.6237 2.14943 19.985 2.0917 20.2989C1.99585 20.5092 1.90186 20.7201 1.8096 20.9309C1.59463 21.4211 1.38662 21.9126 1.17933 22.4025L1.17929 22.4026L1.1792 22.4028L1.17918 22.4028C0.940148 22.9677 0.702057 23.5304 0.455322 24.086L1.32731 24.4793C1.55878 23.9065 1.77854 23.3318 1.99748 22.7592L1.99751 22.7592L1.99753 22.7591L1.99754 22.7591C2.08434 22.5321 2.171 22.3055 2.25821 22.0794C2.60105 21.7768 2.98085 21.5232 3.36984 21.2634C3.73115 21.0221 4.10039 20.7755 4.45532 20.4794C5.55338 19.5618 6.57306 18.9727 7.95532 18.4794C9.33974 17.9884 10.635 17.5972 12.1464 17.4217C12.7922 17.3477 13.4638 17.1668 14.1437 16.9836C14.3099 16.9389 14.4766 16.894 14.6435 16.8505C15.0095 17.0512 16.0463 17.0624 17.3832 16.9347L17.3806 16.9348C18.1564 16.8601 20.4438 16.1157 20.427 15.8901C20.4126 15.7124 18.0641 15.5755 17.3806 15.6375C16.4191 15.7247 15.5804 15.9453 15.0599 16.1849C14.0908 16.0736 13.1162 16.0364 12.1464 16.0718C10.5661 16.1296 8.99218 16.3851 7.52379 16.9095C6.05755 17.4272 4.69897 18.2292 3.62675 19.298C3.486 19.4377 3.35045 19.5819 3.22033 19.7303C3.22447 19.7209 3.22862 19.7116 3.23277 19.7023L3.40933 19.3134L3.59018 18.9402C3.63542 18.8516 3.68405 18.7654 3.7328 18.679L3.73282 18.679L3.73289 18.6788L3.7329 18.6788C3.7514 18.646 3.76991 18.6132 3.78826 18.5802C3.83597 18.4971 3.8878 18.4173 3.93947 18.3376C3.96243 18.3023 3.98536 18.2669 4.00788 18.2314C4.61504 17.3137 5.45474 16.5605 6.39132 15.9095C6.85853 15.5829 7.34943 15.2763 7.84464 14.9763L8.21712 14.7542L8.5939 14.5475C8.84796 14.4142 9.10633 14.2853 9.37116 14.1631C9.90372 13.9148 10.4506 13.6863 11.0001 13.4567C11.5369 13.2324 12.0763 13.0071 12.6072 12.7611C13.6794 12.2679 14.7215 11.6791 15.5677 10.8681C16.4009 10.0416 16.9822 9.0284 17.4495 7.98412C17.547 7.76756 17.6399 7.5491 17.7296 7.32938Z"/>
<circle cx="14.9554" cy="13.979" r="1.5" stroke-width="0.1"/>
<circle cx="10.9554" cy="19.979" r="1.5" stroke-width="0.1"/>
<circle cx="21.9554" cy="8.979" r="1.5" stroke-width="0.1"/>
<circle cx="10.9554" cy="1.979" r="1.5" stroke-width="0.1"/>
<circle cx="14.9554" cy="5.979" r="1.5" stroke-width="0.1"/>
<circle cx="8.95544" cy="8.979" r="1.5" stroke-width="0.1"/>
<circle cx="1.95544" cy="6.979" r="1.5" stroke-width="0.1"/>
</svg>
