<svg width="22" height="22" viewBox="0 0 22 22" fill="none" xmlns="http://www.w3.org/2000/svg">
<path d="M9.27875 0.950051C9.04489 0.948262 8.81308 0.993555 8.59709 1.08323C8.38112 1.1729 8.1854 1.30512 8.02159 1.47202C8.02154 1.47207 8.02149 1.47212 8.02144 1.47217L2.18607 7.30753L2.18605 7.30756L14.3285 21V21.05H14.3286H18.8571C19.4387 21.05 19.9964 20.819 20.4077 20.4077C20.8189 19.9965 21.05 19.4387 21.05 18.8571V16.7143C21.05 15.5644 20.5932 14.4616 19.7801 13.6485C18.967 12.8354 17.8641 12.3786 16.7142 12.3786C16.5381 12.3786 16.3691 12.3086 16.2445 12.184C16.12 12.0594 16.05 11.8905 16.05 11.7143V6.71432C16.05 6.32218 15.8942 5.9461 15.6169 5.66882C15.3396 5.39153 14.9635 5.23575 14.5714 5.23575H13.5643C12.8974 5.23575 12.2579 4.97086 11.7864 4.49934C11.3149 4.02782 11.05 3.3883 11.05 2.72147C11.05 2.25166 10.8633 1.8011 10.5311 1.46889C10.199 1.13673 9.74849 0.950102 9.27875 0.950051ZM9.27875 0.950051C9.27881 0.950051 9.27888 0.950052 9.27894 0.950052L9.27855 1.00005V0.950051C9.27862 0.950051 9.27868 0.950051 9.27875 0.950051ZM13.5642 6.76432H13.5643H14.5214V8.09289H13.1428C12.9401 8.09289 12.7457 8.17341 12.6024 8.31674C12.4591 8.46007 12.3785 8.65447 12.3785 8.85717C12.3785 9.05987 12.4591 9.25427 12.6024 9.3976C12.7457 9.54093 12.9401 9.62146 13.1428 9.62146H14.5214V10.95H13.1428C12.9401 10.95 12.7457 11.0305 12.6024 11.1739C12.4591 11.3172 12.3785 11.5116 12.3785 11.7143C12.3785 11.917 12.4591 12.1114 12.6024 12.2547C12.7457 12.3981 12.9401 12.4786 13.1428 12.4786H14.6649C14.8183 12.891 15.0923 13.2481 15.4517 13.503C15.8207 13.7647 16.2617 13.9059 16.7141 13.9072H16.7142C17.4587 13.9072 18.1728 14.2029 18.6992 14.7293C19.2138 15.244 19.508 15.9379 19.5209 16.6643H14.6421L4.81356 6.83575L9.09927 2.55004C9.09933 2.54998 9.09939 2.54991 9.09946 2.54985C9.12299 2.52684 9.15084 2.50869 9.18141 2.49647C9.21198 2.48424 9.24468 2.47817 9.27761 2.47861C9.34177 2.48018 9.40288 2.50637 9.44827 2.55176C9.49359 2.59708 9.51976 2.65806 9.52141 2.72211C9.52347 3.79353 9.95 4.82049 10.7076 5.57811C11.4654 6.33586 12.4925 6.76241 13.5642 6.76432ZM12.8496 18.9075L12.8496 18.9075L3.26391 9.32894L3.26378 9.32881C3.20151 9.26706 3.1521 9.19359 3.11837 9.11264C3.08465 9.03169 3.06728 8.94486 3.06728 8.85717C3.06728 8.76948 3.08465 8.68265 3.11837 8.6017C3.1521 8.52075 3.20151 8.44728 3.26378 8.38553L3.26392 8.38539L3.73576 7.91355L13.8218 17.9711L13.8226 17.9719C13.9686 18.1111 14.1618 18.19 14.3636 18.1929H14.3643H19.5214V18.8571C19.5214 19.0333 19.4514 19.2023 19.3268 19.3269C19.2022 19.4514 19.0333 19.5214 18.8571 19.5214H14.3286C13.7737 19.5209 13.2417 19.3001 12.8496 18.9075ZM9.39756 20.8261C9.54089 20.6828 9.62141 20.4884 9.62141 20.2857C9.62141 20.083 9.54089 19.8886 9.39756 19.7453C9.25422 19.6019 9.05983 19.5214 8.85712 19.5214H1.71428C1.51158 19.5214 1.31718 19.6019 1.17385 19.7453C1.03052 19.8886 0.95 20.083 0.95 20.2857C0.95 20.4884 1.03052 20.6828 1.17385 20.8261C1.31718 20.9695 1.51158 21.05 1.71428 21.05H8.85712C9.05983 21.05 9.25422 20.9695 9.39756 20.8261ZM1.17385 15.4596C1.03052 15.6029 0.95 15.7973 0.95 16C0.95 16.2027 1.03052 16.3971 1.17385 16.5404C1.31718 16.6838 1.51158 16.7643 1.71428 16.7643H4.57142C4.77412 16.7643 4.96852 16.6838 5.11185 16.5404C5.25518 16.3971 5.3357 16.2027 5.3357 16C5.3357 15.7973 5.25518 15.6029 5.11185 15.4596C4.96852 15.3162 4.77412 15.2357 4.57142 15.2357H1.71428C1.51158 15.2357 1.31718 15.3162 1.17385 15.4596Z" fill="#25244E" stroke="#25244E" stroke-width="0.1"/>
</svg>
