<svg width="20" height="20" viewBox="0 0 20 20" fill="none" xmlns="http://www.w3.org/2000/svg">
    <path fill-rule="evenodd" clip-rule="evenodd"
        d="M6.56353 0.661879C7.6589 -0.435055 9.53366 0.340718 9.53366 1.89091C9.53366 3.11591 10.5267 4.10897 11.7517 4.10897H13.6215C14.588 4.10897 15.3715 4.89247 15.3715 5.85897V10.6795C15.3715 10.8176 15.4834 10.9295 15.6215 10.9295H15.9999C18.0709 10.9295 19.7499 12.6084 19.7499 14.6795V15.9863C19.75 15.9909 19.75 15.9954 19.75 16C19.75 16.0046 19.75 16.0091 19.7499 16.0137V17.5C19.7499 18.4665 18.9664 19.25 17.9999 19.25H13.433C12.4375 19.25 11.4828 18.8542 10.7794 18.1498L1.17477 8.53142C0.492525 7.84821 0.492525 6.74153 1.17477 6.05831L6.56353 0.661879ZM18.2499 15.25V14.6795C18.2499 13.4368 17.2425 12.4295 15.9999 12.4295H15.6215C14.6786 12.4295 13.9099 11.6838 13.8729 10.75H12.5C12.0858 10.75 11.75 10.4142 11.75 10C11.75 9.58579 12.0858 9.25 12.5 9.25H13.8715V8.75H12.5C12.0858 8.75 11.75 8.41421 11.75 8C11.75 7.58579 12.0858 7.25 12.5 7.25H13.8715V5.85897C13.8715 5.7209 13.7596 5.60897 13.6215 5.60897H11.7517C9.69829 5.60897 8.03366 3.94434 8.03366 1.89091C8.03366 1.67759 7.77567 1.57084 7.62494 1.72178L3.95631 5.39565L13.7374 15.1768C13.7843 15.2237 13.8479 15.25 13.9142 15.25H18.2499ZM2.8964 6.45706L12.6768 16.2374C13.005 16.5656 13.4501 16.75 13.9142 16.75H18.2499V17.5C18.2499 17.6381 18.1379 17.75 17.9999 17.75H13.433C12.8357 17.75 12.2629 17.5125 11.8408 17.0899L2.23618 7.47152C2.13872 7.37392 2.13872 7.21582 2.23618 7.11822L2.8964 6.45706ZM1.5 14.25C1.08579 14.25 0.75 14.5858 0.75 15C0.75 15.4142 1.08579 15.75 1.5 15.75H4.5C4.91421 15.75 5.25 15.4142 5.25 15C5.25 14.5858 4.91421 14.25 4.5 14.25H1.5ZM1.5 17.75C1.08579 17.75 0.75 18.0858 0.75 18.5C0.75 18.9142 1.08579 19.25 1.5 19.25H8.5C8.91421 19.25 9.25 18.9142 9.25 18.5C9.25 18.0858 8.91421 17.75 8.5 17.75H1.5Z" />
</svg>