<svg width="29" height="8" viewBox="0 0 29 8" fill="none" xmlns="http://www.w3.org/2000/svg">
<path d="M28.604 3.1396C26.885 1.667 24.9381 0 21.1728 0C17.4075 0 15.4606 1.65459 13.7457 3.1396C12.122 4.52947 10.7177 5.7332 7.78914 5.7332C4.86056 5.7332 3.46462 4.52947 1.83671 3.1396C1.6065 2.95876 1.31518 2.87379 1.02369 2.90248C0.7322 2.93116 0.463106 3.07128 0.272664 3.29351C0.0822222 3.51574 -0.0148219 3.80288 0.00183903 4.0949C0.0184999 4.38693 0.147565 4.66121 0.36205 4.8604C2.08109 6.32886 4.02382 8 7.78914 8C11.5545 8 13.5055 6.34541 15.2204 4.8604C16.8441 3.4664 18.2484 2.2668 21.1728 2.2668C24.0972 2.2668 25.5015 3.4664 27.1252 4.8604C27.2384 4.95737 27.3695 5.03113 27.5112 5.07748C27.6529 5.12382 27.8024 5.14183 27.951 5.1305C28.0997 5.11917 28.2447 5.07871 28.3777 5.01143C28.5107 4.94415 28.6291 4.85135 28.7262 4.73836C28.8233 4.62537 28.8972 4.49438 28.9436 4.35288C28.99 4.21139 29.0081 4.06219 28.9967 3.91373C28.9854 3.76527 28.9448 3.62048 28.8775 3.48766C28.8101 3.35484 28.7172 3.23656 28.604 3.1396Z" fill="#4863F1"/>
</svg>
